# xmcd CD database file
#
# Track frame offsets:
#	150
#	13670
#	23252
#	34955
#	45790
#	55100
#	65427
#	76452
#	88285
#	98672
#	110002
#	120797
#
# Disc length: 1758 seconds
#
# Revision: 0
# Processed by: cddbd v1.5.1PL0 Copyright (c) Steve Scherf et al.
# Submitted via: CDex 1.51
#
DISCID=8506dc0c
DTITLE=The Ventures - Walk Don't Run '64
DYEAR=1964
DGENRE=Rock
TTITLE0=The house of the rising sun
TTITLE1=Diamond head
TTITLE2=Night train
TTITLE3=Peach fuzz
TTITLE4=Rap city
TTITLE5=Blue star
TTITLE6=Walk don't run '64
TTITLE7=Night walk
TTITLE8=One mint julep
TTITLE9=Pedal pusher
TTITLE10=The creeper
TTITLE11=Stranger on the shore
EXTD=YEAR: 1964
EXTT0=
EXTT1=
EXTT2=
EXTT3=
EXTT4=
EXTT5=
EXTT6=
EXTT7=
EXTT8=
EXTT9=
EXTT10=
EXTT11=
PLAYORDER=
